<svg width="62" height="60" viewBox="0 0 62 60" fill="none" xmlns="http://www.w3.org/2000/svg">
<path d="M0.809764 34.4804L30.3484 3.67445C30.6998 3.30543 31.1409 3.04562 31.6232 2.92355L42.6906 0.0816957C43.1486 -0.0356675 43.6276 -0.0264386 44.0813 0.108477C44.535 0.243393 44.9479 0.499431 45.2803 0.851844L56.1979 12.4657C56.5271 12.8124 56.7669 13.2419 56.8947 13.7136C57.0226 14.1852 57.0342 14.6835 56.9285 15.1612L54.2182 27.2063C54.0998 27.7246 53.8468 28.198 53.4877 28.5734L24.5883 59.1521C24.0794 59.6909 23.389 59.9956 22.6678 60C21.9467 60.0043 21.2531 59.7078 20.7384 59.1752L0.817077 38.5814C0.55895 38.314 0.353792 37.9951 0.213529 37.6434C0.0732655 37.2917 0.000684476 36.9141 4.81782e-06 36.5325C-0.00067484 36.151 0.0705625 35.7731 0.209572 35.4208C0.348581 35.0685 0.552592 34.7489 0.809764 34.4804Z" fill="#2A2E32"/>
<path d="M46 16C47.6569 16 49 14.433 49 12.5C49 10.567 47.6569 9 46 9C44.3431 9 43 10.567 43 12.5C43 14.433 44.3431 16 46 16Z" fill="white"/>
<path d="M28 41C29.6569 41 31 39.6569 31 38C31 36.3431 29.6569 35 28 35C26.3431 35 25 36.3431 25 38C25 39.6569 26.3431 41 28 41Z" fill="white"/>
<path d="M28 26C29.6569 26 31 24.6569 31 23C31 21.3431 29.6569 20 28 20C26.3431 20 25 21.3431 25 23C25 24.6569 26.3431 26 28 26Z" fill="white"/>
<path d="M39 29H18V32H39V29Z" fill="white"/>
<path d="M44 13.4062C44 13.4062 49.634 9.20442 50.5839 15.3272C51.5339 21.4499 46.6132 32.2283 50.5839 44.0238C56.0433 60.205 64.618 43.8321 59.3553 38.9104C52.9133 32.8855 54.2599 27.2205 54.2599 27.2205" stroke="#636466" stroke-width="0.945966" stroke-miterlimit="10"/>
</svg>
