<svg width="172" height="157" viewBox="0 0 172 157" fill="none" xmlns="http://www.w3.org/2000/svg">
<path d="M99.7934 3.36071L3.81097 94.1547C-3.01596 100.612 -0.255125 111.999 8.78284 114.65L135.832 151.926C144.87 154.579 153.404 146.515 151.193 137.396L120.126 9.32644C117.917 0.217544 106.62 -3.09675 99.7934 3.36071Z" fill="#B3B3B3"/>
<path d="M98.8362 116.553H57.2616C50.9505 128.946 47.7922 142.69 48.0635 156.58L107.097 156.633C106.884 149.302 105.99 142.007 104.427 134.839C103.059 128.605 101.189 122.49 98.8362 116.553Z" fill="#C20004"/>
<path d="M95.205 66.7861H61.9683V102.024H95.205V66.7861Z" fill="#2A2E32"/>
<path d="M82.1008 60.9158H74.0477C71.4949 60.9158 69.0467 59.9072 67.2416 58.1119C65.4365 56.3166 64.4224 53.8817 64.4224 51.3427V41.2228C64.4224 38.7454 65.4119 36.3695 67.1732 34.6177C68.9345 32.866 71.3234 31.8818 73.8143 31.8818H82.0672C85.3579 31.8818 88.5139 33.182 90.8409 35.4963C93.1678 37.8106 94.4751 40.9495 94.4751 44.2224V48.6087C94.4751 51.8727 93.1714 55.0031 90.8507 57.3112C88.5301 59.6192 85.3826 60.9158 82.1008 60.9158Z" fill="#2A2E32"/>
<path d="M92.1255 57.5311L97.0558 41.3196C97.1246 41.0931 97.2428 40.8844 97.4019 40.7085C97.5611 40.5326 97.7573 40.3938 97.9765 40.3019C98.1958 40.2101 98.4328 40.1675 98.6705 40.1771C98.9082 40.1868 99.1409 40.2485 99.3519 40.3578L104.676 43.1115C104.907 43.231 105.105 43.4042 105.255 43.6164C105.404 43.8286 105.5 44.0735 105.534 44.3303C105.567 44.5871 105.538 44.8483 105.449 45.0915C105.359 45.3348 105.212 45.553 105.02 45.7275L92.1255 57.5311Z" fill="#2A2E32"/>
<path d="M90.8618 56.8953L104.937 48.1798C105.156 48.0446 105.402 47.9602 105.658 47.9327C105.914 47.9052 106.173 47.9354 106.415 48.021C106.658 48.1066 106.878 48.2454 107.059 48.4271C107.24 48.6088 107.378 48.8288 107.462 49.0708L109.329 54.4464C109.418 54.7017 109.445 54.9743 109.407 55.2418C109.368 55.5092 109.267 55.7638 109.111 55.9846C108.954 56.2054 108.747 56.386 108.507 56.5115C108.266 56.637 107.999 56.7038 107.727 56.7064L90.8618 56.8953Z" fill="#2A2E32"/>
<path d="M95.2051 58.0724C94.6364 58.0724 94.0804 57.9047 93.6076 57.5904C93.1347 57.2762 92.7661 56.8295 92.5485 56.3069C92.3308 55.7843 92.2739 55.2093 92.3848 54.6545C92.4958 54.0998 92.7697 53.5902 93.1718 53.1902C93.574 52.7902 94.0863 52.5178 94.6441 52.4075C95.2019 52.2971 95.7801 52.3538 96.3055 52.5702C96.831 52.7867 97.2801 53.1533 97.5961 53.6236C97.912 54.0939 98.0807 54.6468 98.0807 55.2125C98.0796 55.9707 97.7763 56.6975 97.2373 57.2336C96.6982 57.7697 95.9674 58.0714 95.2051 58.0724ZM95.2051 53.1393C94.7929 53.1393 94.3898 53.2609 94.0471 53.4887C93.7043 53.7165 93.4371 54.0403 93.2793 54.4191C93.1216 54.7979 93.0803 55.2148 93.1607 55.6169C93.2411 56.0191 93.4397 56.3885 93.7312 56.6784C94.0227 56.9683 94.3941 57.1658 94.7985 57.2458C95.2028 57.3258 95.6219 57.2847 96.0028 57.1278C96.3837 56.9709 96.7093 56.7052 96.9383 56.3643C97.1673 56.0233 97.2896 55.6225 97.2896 55.2125C97.2885 54.663 97.0686 54.1362 96.6779 53.7477C96.2872 53.3591 95.7576 53.1404 95.2051 53.1393Z" fill="#2A2E32"/>
<path d="M90.002 50.8621C90.1162 49.7883 89.8007 48.713 89.1237 47.8689C88.4468 47.0248 87.4628 46.4798 86.3848 46.3519L86.4105 43.5765C86.4244 42.6963 86.2634 41.822 85.9367 41.0039C85.6101 40.1857 85.1242 39.4397 84.5071 38.8087C83.8899 38.1777 83.1535 37.674 82.3402 37.3267C81.5269 36.9794 80.6526 36.7952 79.7675 36.7847L69.4836 36.7119C68.1365 36.7103 66.8436 37.2402 65.8886 38.1852C64.9336 39.1302 64.3944 40.4133 64.3891 41.7532L64.2804 54.2452C64.2652 55.293 64.4579 56.3334 64.8474 57.307C65.2368 58.2807 65.8155 59.1684 66.5502 59.9194C67.2849 60.6704 68.1613 61.27 69.1292 61.6838C70.0971 62.0977 71.1376 62.3177 72.1911 62.3313H72.6657L72.6024 69.2549L86.191 69.3513L86.2662 61.1511H86.2543L86.3156 54.556C87.2637 54.4564 88.1481 54.0345 88.8197 53.3615C89.4913 52.6886 89.9089 51.8057 90.002 50.8621Z" fill="white"/>
<path d="M116.441 85.4884L100.143 95.0438L110.265 115.862C110.265 115.862 114.833 124.489 123.401 120.445C125.129 119.614 126.671 118.443 127.932 117.002C129.193 115.562 130.147 113.883 130.738 112.066L139.544 85.4884C139.544 85.4884 152.482 81.1198 154.401 69.8768C154.475 69.5204 154.481 69.1535 154.419 68.7949C154.321 68.2588 154.075 67.7603 153.709 67.3551C153.84 67.0584 153.946 66.7511 154.025 66.4366C154.203 65.7226 154.373 65.0263 153.792 64.4362C153.55 64.1756 153.216 64.0179 152.86 63.9959C152.504 63.9739 152.154 64.0894 151.881 64.3182C152.016 63.5865 151.814 62.9413 151.361 62.6581C151.175 62.549 150.96 62.4989 150.744 62.5145C149.722 62.5755 148.978 63.97 148.766 64.3595C147.9 65.933 146.071 68.5943 143.361 72.3256C143.361 72.3256 147.259 67.068 145.185 65.6203C144.566 65.1895 143.826 65.7934 143.419 66.2222C142.665 67.009 142.375 68.0967 141.815 69.0015C141.077 70.1363 140.09 71.0904 138.929 71.7926C137.1 72.9491 135.075 73.5628 133.406 74.9731C132.646 75.6085 131.968 76.3352 131.389 77.1367C130.71 78.0848 130.471 79.204 129.886 80.1619L120.826 94.9041L116.441 85.4884Z" fill="white"/>
<path d="M118.979 121.915C113.105 121.915 109.953 116.118 109.915 116.046L99.6313 94.8893L116.618 84.9307L120.874 94.0789L129.544 79.9622C129.784 79.5462 129.992 79.1122 130.165 78.664C130.397 78.0499 130.698 77.4639 131.062 76.9174C131.66 76.0869 132.36 75.3336 133.145 74.675C134.189 73.7899 135.372 73.2077 136.507 72.6452C137.261 72.2908 137.995 71.8969 138.706 71.465C139.821 70.7973 140.768 69.8859 141.475 68.7998C141.67 68.4704 141.847 68.1302 142.003 67.7809C142.302 67.1495 142.61 66.4985 143.128 65.9556C144.246 64.7754 145.037 65.0449 145.409 65.3045C145.61 65.4462 145.781 65.6279 145.909 65.838C146.037 66.0482 146.119 66.2825 146.152 66.526C146.209 66.9574 146.185 67.3956 146.081 67.8183C147.192 66.2034 147.956 65.0115 148.417 64.1755L148.428 64.1499C148.693 63.668 149.498 62.1987 150.719 62.1279C151.015 62.1033 151.312 62.1721 151.567 62.3246C151.785 62.4737 151.966 62.6713 152.094 62.9017C152.222 63.1322 152.294 63.3892 152.305 63.6523C152.618 63.574 152.947 63.5799 153.257 63.6694C153.567 63.7589 153.848 63.9288 154.071 64.1617C154.812 64.9111 154.587 65.81 154.407 66.5319C154.344 66.789 154.262 67.0413 154.164 67.2872C154.455 67.6612 154.661 68.0934 154.769 68.554C154.876 69.0147 154.882 69.4931 154.787 69.9563C153.996 74.6436 151.114 78.8882 146.48 82.2183C144.437 83.6907 142.21 84.8933 139.855 85.7961L131.114 112.189C130.504 114.056 129.522 115.781 128.225 117.261C126.929 118.741 125.345 119.945 123.569 120.802C122.142 121.509 120.573 121.889 118.979 121.915ZM100.658 95.2001L110.621 115.692C111.453 117.119 112.56 118.37 113.878 119.372C116.685 121.455 119.831 121.697 123.231 120.09C124.91 119.279 126.407 118.14 127.632 116.74C128.858 115.34 129.786 113.708 130.362 111.943L139.234 85.1805L139.422 85.1175C139.549 85.0742 152.16 80.688 154.015 69.8108C154.081 69.4994 154.087 69.1783 154.033 68.8647C153.948 68.4005 153.735 67.9689 153.418 67.6177L153.248 67.421L153.351 67.1889C153.473 66.9132 153.572 66.6276 153.646 66.3352C153.829 65.5937 153.922 65.1196 153.513 64.7046C153.343 64.517 153.107 64.4017 152.853 64.3827C152.6 64.3636 152.349 64.4423 152.152 64.6023L151.286 65.3891L151.498 64.2444C151.601 63.6838 151.464 63.1783 151.158 62.9914C151.041 62.9235 150.906 62.8939 150.772 62.9068C150.254 62.9363 149.7 63.4812 149.131 64.5217L149.117 64.5453C148.296 66.0362 146.647 68.4792 143.777 72.4347L143.688 72.5586L143.049 72.0944L143.178 71.9174C143.969 70.7962 145.622 68.1074 145.383 66.646C145.367 66.5061 145.321 66.3711 145.249 66.2498C145.178 66.1285 145.081 66.0236 144.966 65.9418C144.57 65.6665 143.959 66.2349 143.714 66.4926C143.283 66.941 143.016 67.5095 142.725 68.1114C142.554 68.4864 142.363 68.8521 142.153 69.2069C141.386 70.3936 140.357 71.3911 139.145 72.1239C138.406 72.5716 137.644 72.9793 136.861 73.3454C135.71 73.9138 134.622 74.4488 133.651 75.271C132.922 75.8888 132.273 76.5944 131.719 77.3717C131.389 77.8707 131.117 78.4051 130.908 78.9649C130.719 79.4507 130.493 79.9215 130.232 80.3733L120.787 95.7429L116.275 86.0499L100.658 95.2001Z" fill="#2A2E32"/>
<path d="M85.8371 52.4333C85.7824 52.4362 85.7277 52.4362 85.673 52.4333C85.3536 52.401 85.051 52.2753 84.8035 52.072C84.5559 51.8687 84.3746 51.597 84.2822 51.2912C84.1899 50.9854 84.1908 50.6593 84.2848 50.354C84.3788 50.0487 84.5616 49.778 84.8103 49.576C85.0589 49.3741 85.3622 49.2499 85.6817 49.2193C86.0012 49.1888 86.3227 49.2531 86.6056 49.4041C86.8884 49.5552 87.1198 49.7863 87.2706 50.0681C87.4214 50.35 87.4849 50.6699 87.4529 50.9876C87.4123 51.3855 87.2248 51.7543 86.9268 52.0228C86.6287 52.2913 86.2412 52.4403 85.8391 52.4412L85.8371 52.4333ZM85.8371 49.9904C85.676 49.9904 85.5184 50.037 85.3833 50.1244C85.2482 50.2117 85.1416 50.3362 85.0762 50.4827C85.0109 50.6292 84.9897 50.7914 85.0152 50.9496C85.0407 51.1078 85.1119 51.2553 85.22 51.3741C85.3281 51.4929 85.4686 51.578 85.6243 51.619C85.7801 51.66 85.9445 51.6552 86.0975 51.6051C86.2506 51.555 86.3857 51.4618 86.4866 51.3369C86.5874 51.2119 86.6497 51.0605 86.6658 50.9011C86.6873 50.6826 86.621 50.4645 86.4812 50.2946C86.3415 50.1247 86.1398 50.0167 85.9202 49.9943L85.8371 49.9904Z" fill="#2A2E32"/>
<path d="M72.8437 61.9488L80.9521 61.7521C81.0048 61.7501 81.0565 61.767 81.0977 61.7998C81.1388 61.8326 81.1668 61.879 81.1764 61.9305C81.186 61.9821 81.1766 62.0354 81.1499 62.0806C81.1233 62.1259 81.0812 62.1601 81.0312 62.177L72.8101 65.1274L72.8437 61.9488Z" fill="#2A2E32"/>
<path d="M84.6231 51.4105C84.5247 51.411 84.4296 51.375 84.3565 51.3096C84.2833 51.2441 84.2374 51.1539 84.2275 51.0565C84.1828 50.62 84.2545 50.1795 84.4354 49.7793C84.6163 49.3791 84.9 49.0333 85.2579 48.7768C85.6015 48.5436 85.9963 48.3957 86.4092 48.3454C86.8221 48.2951 87.2411 48.3439 87.6311 48.4877C87.6816 48.5049 87.728 48.5321 87.7677 48.5677C87.8073 48.6033 87.8393 48.6465 87.8617 48.6947C87.8841 48.7428 87.8965 48.7951 87.898 48.8481C87.8996 48.9012 87.8904 48.954 87.8709 49.0035C87.8514 49.0529 87.822 49.0979 87.7845 49.1357C87.7471 49.1735 87.7023 49.2035 87.653 49.2236C87.6036 49.2438 87.5506 49.2538 87.4972 49.2531C87.4438 49.2524 87.3912 49.2409 87.3424 49.2194C87.0753 49.1242 86.7896 49.0924 86.5081 49.1265C86.2265 49.1607 85.9568 49.2598 85.7207 49.4161C85.4758 49.5915 85.2818 49.8281 85.1582 50.102C85.0346 50.3758 84.9857 50.6772 85.0166 50.9758C85.0218 51.0272 85.0168 51.0792 85.0018 51.1286C84.9868 51.1781 84.9622 51.2241 84.9293 51.2641C84.8964 51.3041 84.856 51.3373 84.8102 51.3618C84.7644 51.3862 84.7143 51.4014 84.6626 51.4066L84.6231 51.4105Z" fill="#2A2E32"/>
<path d="M44.7921 84.3367L61.0901 93.8921L50.9684 114.71C50.9684 114.71 46.398 123.337 37.8327 119.293C36.1036 118.462 34.5619 117.292 33.3008 115.851C32.0396 114.411 31.0853 112.732 30.4955 110.914L21.687 84.3367C21.687 84.3367 8.74906 79.9681 6.8327 68.7251C6.75856 68.3688 6.75253 68.0018 6.8149 67.6433C6.91164 67.1076 7.15606 66.6091 7.52093 66.2035C7.38948 65.9068 7.28363 65.5995 7.2045 65.2849C7.02651 64.5729 6.85643 63.8746 7.43984 63.2845C7.68163 63.0245 8.01487 62.8672 8.37029 62.8452C8.72571 62.8232 9.07598 62.9383 9.3483 63.1665C9.21381 62.4348 9.41751 61.7897 9.86842 61.5064C10.055 61.3983 10.27 61.3482 10.4855 61.3628C11.5079 61.4238 12.2515 62.8184 12.4631 63.2078C13.3313 64.7814 15.1607 67.4446 17.8681 71.1739C17.8681 71.1739 13.9701 65.9163 16.0447 64.4686C16.6637 64.0379 17.4034 64.6437 17.8127 65.0705C18.5662 65.8573 18.855 66.947 19.4146 67.8498C20.1537 68.9838 21.1398 69.9377 22.3001 70.6409C24.1294 71.7975 26.1546 72.4111 27.8257 73.8214C28.585 74.4573 29.2626 75.1841 29.8429 75.9851C30.5193 76.9331 30.7606 78.0503 31.3459 79.0082L40.4037 93.7505L44.7921 84.3367Z" fill="white"/>
<path d="M42.2548 120.762C40.6595 120.738 39.0901 120.357 37.6626 119.648C35.8869 118.792 34.3035 117.587 33.0074 116.107C31.7112 114.627 30.7291 112.902 30.1198 111.035L21.3646 84.6427C19.0096 83.7408 16.7825 82.5381 14.7394 81.0648C10.1077 77.7368 7.23613 73.4902 6.4332 68.7892C6.33945 68.3282 6.34675 67.8526 6.4546 67.3947C6.56245 66.9368 6.76831 66.5074 7.05814 66.1358C6.96166 65.8892 6.88042 65.6369 6.81489 65.3805C6.63492 64.6566 6.41935 63.7597 7.15109 63.0083C7.37393 62.7758 7.65477 62.6061 7.965 62.5166C8.27524 62.4271 8.60378 62.421 8.91715 62.4989C8.92817 62.2359 9.00055 61.979 9.12858 61.7485C9.25661 61.5181 9.43677 61.3205 9.65483 61.1712C9.90998 61.019 10.2067 60.9502 10.5032 60.9745C11.7235 61.0473 12.5284 62.5146 12.7934 62.9965L12.8072 63.0221C13.2759 63.8738 14.0275 65.052 15.1429 66.6688C15.0382 66.2449 15.0141 65.8053 15.0717 65.3726C15.1035 65.1288 15.1861 64.8943 15.3141 64.684C15.4422 64.4737 15.6128 64.2922 15.8153 64.1511C16.1871 63.8915 16.9781 63.6319 18.0955 64.8022C18.6117 65.3451 18.9222 65.9981 19.2208 66.6275C19.3765 66.9772 19.5528 67.3174 19.7489 67.6464C20.4531 68.7321 21.3965 69.6442 22.5077 70.3136C23.2199 70.7443 23.9539 71.1382 24.7069 71.4937C25.85 72.0563 27.0326 72.6404 28.0689 73.5236C28.8541 74.1827 29.5542 74.9359 30.1534 75.7659C30.5175 76.3125 30.818 76.8985 31.0493 77.5126C31.2237 77.9609 31.432 78.3955 31.6723 78.8127L40.3443 92.9275L44.6003 83.7792L61.5885 93.7398L51.3046 114.882C51.2809 114.963 48.1265 120.762 42.2548 120.762ZM8.49196 63.2286C8.20245 63.2342 7.92679 63.3529 7.72462 63.5591C7.31326 63.9741 7.40621 64.4501 7.59212 65.1897C7.66404 65.4823 7.76199 65.768 7.88481 66.0433L7.98765 66.2754L7.81955 66.4721C7.5011 66.8223 7.28799 67.2544 7.20449 67.7192C7.14943 68.0281 7.1548 68.3446 7.22031 68.6515C9.07932 79.5523 21.687 83.9287 21.8155 83.972L22.0014 84.0349L30.8713 110.797C31.4469 112.563 32.3753 114.195 33.6008 115.596C34.8262 116.996 36.3235 118.136 38.0028 118.946C41.4103 120.555 44.5647 120.309 47.375 118.211C48.6888 117.209 49.791 115.96 50.6184 114.534L60.574 94.0545L44.9681 84.9043L40.4571 94.5856L31.0117 79.214C30.7497 78.7628 30.5236 78.2919 30.3353 77.8056C30.1255 77.2462 29.8536 76.7118 29.5245 76.2124C28.9628 75.4406 28.3071 74.741 27.5725 74.1294C26.6015 73.3072 25.5158 72.7722 24.3648 72.2038C23.5859 71.8373 22.8273 71.4296 22.0924 70.9823C20.8797 70.2495 19.8505 69.252 19.0824 68.0653C18.8719 67.7111 18.6818 67.3453 18.5128 66.9698C18.228 66.3679 17.9591 65.8014 17.524 65.351C17.2788 65.0933 16.6657 64.5248 16.2701 64.8002C16.1551 64.8822 16.0586 64.9872 15.9868 65.1085C15.9149 65.2297 15.8693 65.3646 15.8529 65.5044C15.6136 66.9658 17.253 69.635 18.054 70.7699L18.1865 70.9528L17.5477 71.417L17.4587 71.2931C14.5832 67.3277 12.9338 64.8927 12.119 63.4057L12.1052 63.3801C11.5336 62.3396 10.9818 61.7967 10.4617 61.7652C10.3275 61.7534 10.1928 61.7829 10.0761 61.8498C9.76953 62.0465 9.63307 62.5422 9.73789 63.1047L9.94752 64.2475L9.08328 63.4607C8.92276 63.3118 8.71148 63.2289 8.49196 63.2286Z" fill="#2A2E32"/>
<path d="M66.0837 49.7231C66.526 49.7231 66.8846 49.3664 66.8846 48.9265C66.8846 48.4865 66.526 48.1299 66.0837 48.1299C65.6413 48.1299 65.2827 48.4865 65.2827 48.9265C65.2827 49.3664 65.6413 49.7231 66.0837 49.7231Z" fill="#2A2E32"/>
<path d="M74.6745 49.5942C75.1168 49.5942 75.4754 49.2375 75.4754 48.7976C75.4754 48.3576 75.1168 48.001 74.6745 48.001C74.2321 48.001 73.8735 48.3576 73.8735 48.7976C73.8735 49.2375 74.2321 49.5942 74.6745 49.5942Z" fill="#2A2E32"/>
<path d="M69.252 52.449C69.2068 52.4488 69.162 52.4408 69.1195 52.4254C68.5262 52.2287 67.9329 51.9376 67.9329 51.4223C67.9396 51.3259 67.9655 51.2318 68.0089 51.1454C68.0524 51.059 68.1126 50.982 68.186 50.9188C68.2371 50.8671 68.2853 50.8126 68.3304 50.7555C68.531 50.4971 68.6513 50.186 68.6765 49.8605L69.0087 46.4086C69.0187 46.3042 69.0699 46.2081 69.1511 46.1414C69.2324 46.0746 69.3369 46.0426 69.4418 46.0526C69.5467 46.0625 69.6434 46.1134 69.7105 46.1942C69.7776 46.275 69.8098 46.379 69.7998 46.4833L69.4636 49.9373C69.4239 50.4094 69.2481 50.8602 68.9573 51.2354C68.896 51.3141 68.8426 51.3731 68.7971 51.4223C68.9839 51.5323 69.183 51.6201 69.3904 51.6839C69.4789 51.7144 69.5536 51.775 69.6014 51.8552C69.6491 51.9353 69.6667 52.0296 69.651 52.1215C69.6353 52.2133 69.5874 52.2966 69.5158 52.3566C69.4442 52.4165 69.3535 52.4493 69.2599 52.449H69.252Z" fill="#2A2E32"/>
<path d="M70.4463 55.8897C69.8402 55.8729 69.2494 55.6971 68.7336 55.3802C68.6879 55.3531 68.6481 55.3171 68.6167 55.2743C68.5853 55.2315 68.5628 55.1829 68.5508 55.1313C68.5387 55.0797 68.5373 55.0262 68.5465 54.9741C68.5558 54.9219 68.5755 54.8721 68.6045 54.8277C68.6336 54.7833 68.6714 54.7452 68.7156 54.7157C68.7598 54.6861 68.8096 54.6658 68.8619 54.6559C68.9142 54.6459 68.968 54.6466 69.02 54.6578C69.0721 54.6691 69.1213 54.6907 69.1648 54.7213C69.1786 54.7311 69.9934 55.2406 70.7944 55.0655C71.0135 55.0103 71.2189 54.9112 71.3982 54.7742C71.5774 54.6373 71.7266 54.4653 71.8366 54.2689C71.8927 54.1808 71.9818 54.1184 72.0841 54.0955C72.1865 54.0726 72.2938 54.0911 72.3824 54.147C72.4711 54.2028 72.5338 54.2913 72.5568 54.3931C72.5798 54.495 72.5612 54.6017 72.505 54.6898C72.3022 55.0556 72.0039 55.3601 71.6415 55.5712C71.2792 55.7824 70.8662 55.8924 70.4463 55.8897Z" fill="#2A2E32"/>
<path d="M57.2611 116.552L53.8001 99.8327C53.2111 96.9896 53.3609 94.0441 54.2352 91.2745L61.9679 66.7842H68.8641L70.4462 70.2775C73.8419 77.7774 84.6044 77.6161 87.7726 70.0198L89.1214 66.7842H95.2047L102.825 91.6837C103.808 94.8931 103.857 98.314 102.965 101.55L98.8357 116.552H57.2611Z" fill="#C20004"/>
<path d="M79.4093 42.4105H75.5885C74.4073 42.4105 73.2745 41.9438 72.4392 41.1131C71.604 40.2824 71.1348 39.1557 71.1348 37.9809V35.1328H79.4093V42.4105Z" fill="#2A2E32"/>
<path d="M95.2051 66.787L103.327 93.7675L118.603 84.8042C116.915 81.726 115.04 78.753 112.988 75.9018C109.367 70.8743 107.49 68.335 104.31 67.0506C100.93 65.6737 97.5348 66.1517 95.2051 66.787Z" fill="#2A2E32"/>
<path d="M90.0232 46.7035H83.1607C82.4989 46.7032 81.8437 46.5733 81.2324 46.3212C80.6212 46.0691 80.0658 45.6997 79.5981 45.2342C79.1303 44.7686 78.7594 44.216 78.5064 43.6078C78.2534 42.9997 78.1233 42.3479 78.1235 41.6897V39.4238H90.0252L90.0232 46.7035Z" fill="#2A2E32"/>
<path d="M87.5994 35.1328H75.7729V42.4125H87.5994V35.1328Z" fill="#2A2E32"/>
<path d="M93.2745 74.1207C98.4714 74.1207 102.684 69.9307 102.684 64.762C102.684 59.5933 98.4714 55.4033 93.2745 55.4033C88.0776 55.4033 83.8647 59.5933 83.8647 64.762C83.8647 69.9307 88.0776 74.1207 93.2745 74.1207Z" fill="#2A2E32"/>
<path d="M86.3968 80.6452C90.2447 80.6452 93.3641 77.5427 93.3641 73.7157C93.3641 69.8886 90.2447 66.7861 86.3968 66.7861C82.5488 66.7861 79.4294 69.8886 79.4294 73.7157C79.4294 77.5427 82.5488 80.6452 86.3968 80.6452Z" fill="#2A2E32"/>
<path d="M98.9051 81.0397C102.753 81.0397 105.872 77.9373 105.872 74.1102C105.872 70.2831 102.753 67.1807 98.9051 67.1807C95.0571 67.1807 91.9377 70.2831 91.9377 74.1102C91.9377 77.9373 95.0571 81.0397 98.9051 81.0397Z" fill="#2A2E32"/>
<path d="M84.7054 104.54H72.4656C70.6401 104.538 68.8899 103.816 67.5993 102.532C66.3086 101.248 65.5829 99.5072 65.5813 97.6916V89.4579C65.5813 88.5763 65.933 87.7307 66.5593 87.1067C67.1855 86.4828 68.0351 86.1314 68.9216 86.1299H88.2494C89.1355 86.1309 89.985 86.4815 90.6116 87.1046C91.2381 87.7278 91.5906 88.5727 91.5916 89.454V97.6876C91.5906 99.5041 90.8649 101.246 89.5738 102.531C88.2827 103.816 86.5318 104.538 84.7054 104.54ZM68.9216 86.9167C68.2455 86.9177 67.5974 87.1854 67.1195 87.6611C66.6416 88.1368 66.3729 88.7816 66.3724 89.454V97.6876C66.3739 99.2946 67.0163 100.835 68.1586 101.972C69.3009 103.108 70.8499 103.748 72.4656 103.75H84.7054C86.3215 103.748 87.8709 103.109 89.0136 101.972C90.1563 100.836 90.799 99.2949 90.8006 97.6876V89.4579C90.8006 88.7846 90.5319 88.1388 90.0536 87.6624C89.5753 87.1859 88.9264 86.9177 88.2494 86.9167H68.9216Z" fill="white"/>
<path d="M91.938 90.0788C95.786 90.0788 98.9054 86.9763 98.9054 83.1493C98.9054 79.3222 95.786 76.2197 91.938 76.2197C88.0901 76.2197 84.9707 79.3222 84.9707 83.1493C84.9707 86.9763 88.0901 90.0788 91.938 90.0788Z" fill="#2A2E32"/>
<path d="M116.382 101.828C116.311 101.828 116.24 101.808 116.179 101.771C116.118 101.735 116.067 101.682 116.034 101.619C116 101.556 115.985 101.485 115.989 101.414C115.992 101.342 116.016 101.274 116.056 101.215L120.496 94.6902C120.525 94.6473 120.562 94.6105 120.606 94.582C120.649 94.5535 120.697 94.5337 120.749 94.5238C120.8 94.514 120.852 94.5142 120.903 94.5245C120.954 94.5348 121.002 94.555 121.046 94.584C121.089 94.6129 121.126 94.65 121.154 94.6931C121.183 94.7363 121.203 94.7846 121.213 94.8354C121.223 94.8862 121.222 94.9384 121.212 94.9891C121.202 95.0397 121.181 95.0879 121.152 95.1308L116.71 101.655C116.674 101.709 116.625 101.752 116.568 101.782C116.511 101.813 116.447 101.828 116.382 101.828Z" fill="#2A2E32"/>
<path d="M149.405 75.7044C149.325 75.7046 149.247 75.6807 149.181 75.6358C149.115 75.591 149.064 75.5274 149.036 75.4533C149.007 75.3792 149.001 75.2981 149.019 75.2207C149.038 75.1434 149.079 75.0733 149.138 75.0199C151.573 72.813 153.248 67.4432 153.264 67.3901C153.279 67.3407 153.304 67.2946 153.337 67.2547C153.37 67.2148 153.411 67.1818 153.456 67.1575C153.502 67.1332 153.553 67.1181 153.604 67.1132C153.656 67.1082 153.708 67.1134 153.758 67.1285C153.808 67.1436 153.854 67.1683 153.894 67.2012C153.934 67.2341 153.968 67.2745 153.992 67.3202C154.016 67.3659 154.032 67.4159 154.037 67.4673C154.042 67.5188 154.036 67.5708 154.021 67.6202C153.95 67.8484 152.267 73.2477 149.67 75.6021C149.598 75.6677 149.503 75.7041 149.405 75.7044Z" fill="#2A2E32"/>
<path d="M146.947 73.5763C146.865 73.5766 146.785 73.5516 146.718 73.5046C146.651 73.4577 146.6 73.3911 146.573 73.3142C146.545 73.2372 146.543 73.1537 146.565 73.0752C146.588 72.9968 146.634 72.9271 146.698 72.8761C148.951 71.0586 151.482 64.2491 151.508 64.1822C151.548 64.0904 151.622 64.0174 151.715 63.978C151.807 63.9386 151.911 63.9358 152.006 63.9702C152.101 64.0045 152.178 64.0735 152.224 64.1629C152.269 64.2524 152.278 64.3557 152.249 64.4517C152.143 64.7408 149.617 71.5327 147.196 73.4878C147.126 73.5449 147.038 73.5761 146.947 73.5763Z" fill="#2A2E32"/>
<path d="M44.8493 100.684C44.785 100.684 44.7217 100.668 44.6648 100.638C44.608 100.608 44.5593 100.565 44.523 100.513L40.0811 93.9863C40.0495 93.9436 40.0269 93.895 40.0146 93.8435C40.0023 93.7919 40.0006 93.7384 40.0096 93.6861C40.0186 93.6339 40.0382 93.584 40.0671 93.5395C40.096 93.495 40.1336 93.4567 40.1778 93.427C40.2219 93.3973 40.2716 93.3767 40.3239 93.3666C40.3762 93.3565 40.4301 93.357 40.4822 93.3681C40.5343 93.3792 40.5836 93.4006 40.6272 93.4311C40.6708 93.4616 40.7077 93.5006 40.7357 93.5457L45.1776 100.07C45.2178 100.129 45.2411 100.198 45.2449 100.27C45.2487 100.341 45.2328 100.412 45.1991 100.475C45.1653 100.538 45.1149 100.591 45.0533 100.628C44.9917 100.664 44.9211 100.684 44.8493 100.684Z" fill="#2A2E32"/>
<path d="M11.8261 74.5583C11.7281 74.5581 11.6337 74.5216 11.5611 74.4561C8.96644 72.0957 7.28146 66.7024 7.21026 66.4742C7.19207 66.4241 7.18431 66.3708 7.18745 66.3176C7.19058 66.2644 7.20456 66.2124 7.22851 66.1647C7.25247 66.1171 7.28592 66.0748 7.32682 66.0403C7.36773 66.0059 7.41524 65.9801 7.46647 65.9645C7.5177 65.9489 7.57158 65.9438 7.62485 65.9495C7.67812 65.9553 7.72967 65.9717 7.77635 65.9979C7.82304 66.024 7.8639 66.0593 7.89646 66.1016C7.92901 66.144 7.95258 66.1924 7.96573 66.2441C7.98353 66.2972 9.65862 71.6669 12.0912 73.8758C12.1496 73.9294 12.1904 73.9993 12.2083 74.0763C12.2262 74.1533 12.2204 74.2339 12.1916 74.3076C12.1628 74.3813 12.1123 74.4446 12.0468 74.4893C11.9812 74.534 11.9037 74.5581 11.8242 74.5583H11.8261Z" fill="#2A2E32"/>
<path d="M14.283 72.4257C14.1921 72.4255 14.1042 72.3943 14.0338 72.3372C11.6111 70.384 9.08959 63.5902 8.97884 63.3031C8.96092 63.2545 8.95279 63.2029 8.95492 63.1512C8.95705 63.0995 8.9694 63.0488 8.99125 63.0018C9.0131 62.9549 9.04404 62.9127 9.08229 62.8776C9.12054 62.8426 9.16536 62.8154 9.21418 62.7976C9.26301 62.7797 9.31489 62.7717 9.36685 62.7738C9.41882 62.7759 9.46986 62.7882 9.51706 62.8099C9.56425 62.8316 9.60668 62.8624 9.64192 62.9004C9.67716 62.9385 9.70453 62.9831 9.72245 63.0316C9.74815 63.1005 12.2776 69.9159 14.5321 71.7275C14.5954 71.7787 14.6411 71.8482 14.6631 71.9263C14.6851 72.0045 14.6822 72.0875 14.6549 72.1639C14.6276 72.2404 14.5773 72.3066 14.5107 72.3535C14.4441 72.4003 14.3645 72.4256 14.283 72.4257Z" fill="#2A2E32"/>
<path d="M77.5801 157C77.4752 157 77.3746 156.958 77.3004 156.884C77.2262 156.811 77.1846 156.711 77.1846 156.606V137.568C77.1846 137.464 77.2262 137.364 77.3004 137.29C77.3746 137.216 77.4752 137.175 77.5801 137.175C77.685 137.175 77.7856 137.216 77.8598 137.29C77.934 137.364 77.9756 137.464 77.9756 137.568V156.606C77.9756 156.711 77.934 156.811 77.8598 156.884C77.7856 156.958 77.685 157 77.5801 157Z" fill="white"/>
<path d="M77.5801 126.058C77.4752 126.058 77.3746 126.016 77.3004 125.943C77.2262 125.869 77.1846 125.769 77.1846 125.664V116.552C77.1846 116.447 77.2262 116.347 77.3004 116.273C77.3746 116.2 77.4752 116.158 77.5801 116.158C77.685 116.158 77.7856 116.2 77.8598 116.273C77.934 116.347 77.9756 116.447 77.9756 116.552V125.664C77.9756 125.769 77.934 125.869 77.8598 125.943C77.7856 126.016 77.685 126.058 77.5801 126.058Z" fill="white"/>
<path d="M102.212 126.695C102.189 126.697 102.166 126.697 102.143 126.695C97.256 125.841 94.7068 123.155 93.4312 121.036C92.5948 119.682 92.0456 118.172 91.8174 116.599C91.8122 116.547 91.8173 116.495 91.8324 116.445C91.8474 116.396 91.8722 116.349 91.9053 116.309C91.9383 116.269 91.979 116.236 92.025 116.211C92.071 116.186 92.1214 116.171 92.1734 116.166C92.2253 116.161 92.2778 116.166 92.3278 116.181C92.3777 116.196 92.4243 116.221 92.4647 116.253C92.5051 116.286 92.5386 116.327 92.5632 116.373C92.5879 116.418 92.6033 116.468 92.6085 116.52C92.8368 117.983 93.3544 119.387 94.1313 120.651C95.8677 123.499 98.6107 125.269 102.285 125.912C102.39 125.921 102.487 125.971 102.555 126.051C102.623 126.131 102.656 126.235 102.647 126.339C102.638 126.443 102.588 126.54 102.508 126.607C102.427 126.675 102.323 126.708 102.218 126.699L102.212 126.695Z" fill="white"/>
<path d="M54.6175 127.215C54.027 127.213 53.4371 127.175 52.8515 127.099C52.7466 127.086 52.6513 127.032 52.5866 126.949C52.5218 126.865 52.493 126.76 52.5064 126.656C52.5198 126.551 52.5743 126.457 52.6579 126.392C52.7415 126.328 52.8474 126.299 52.9523 126.313C55.8951 126.688 58.2644 126.102 59.9948 124.576C63.1927 121.753 63.1908 116.6 63.1908 116.549C63.1908 116.444 63.2324 116.344 63.3066 116.27C63.3808 116.197 63.4814 116.155 63.5863 116.155C63.6912 116.155 63.7918 116.197 63.866 116.27C63.9401 116.344 63.9818 116.444 63.9818 116.549C63.9818 116.773 63.9818 122.103 60.5229 125.166C58.9803 126.529 56.9987 127.215 54.6175 127.215Z" fill="white"/>
<path d="M42.4307 84.0334L54.3639 90.8705L61.9681 66.7892C61.9681 66.7892 51.4251 63.8663 42.4307 84.0334Z" fill="#2A2E32"/>
<path d="M47.3496 59.8988H16.6957C15.1599 59.8973 13.6874 59.2898 12.6014 58.2097C11.5154 57.1296 10.9047 55.6651 10.9031 54.1376V29.7476C10.902 28.9898 11.0512 28.2391 11.342 27.5387C11.6328 26.8382 12.0596 26.2016 12.5979 25.6653C13.1363 25.1289 13.7756 24.7034 14.4794 24.413C15.1832 24.1225 15.9377 23.9729 16.6996 23.9727H47.3536C48.8894 23.9742 50.3618 24.5817 51.4478 25.6618C52.5338 26.7419 53.1446 28.2063 53.1462 29.7338V54.1239C53.1472 54.8817 52.9981 55.6323 52.7072 56.3328C52.4164 57.0333 51.9896 57.6699 51.4513 58.2062C50.913 58.7425 50.2736 59.1681 49.5698 59.4585C48.866 59.7489 48.1116 59.8986 47.3496 59.8988ZM16.6996 24.7594C15.3736 24.761 14.1024 25.2856 13.1648 26.2181C12.2271 27.1507 11.6997 28.415 11.6981 29.7338V54.1239C11.6997 55.4427 12.2271 56.707 13.1648 57.6396C14.1024 58.5721 15.3736 59.0967 16.6996 59.0983H47.3536C48.6797 59.0972 49.9513 58.5728 50.889 57.6402C51.8268 56.7075 52.354 55.4429 52.3551 54.1239V29.7338C52.354 28.4142 51.8262 27.1489 50.8876 26.2162C49.949 25.2834 48.6765 24.7594 47.3496 24.7594H16.6996Z" fill="#2A2E32"/>
<path d="M49.6457 37.902H39.2669C39.162 37.902 39.0614 37.8606 38.9872 37.7868C38.913 37.713 38.8713 37.613 38.8713 37.5086C38.8713 37.4043 38.913 37.3042 38.9872 37.2305C39.0614 37.1567 39.162 37.1152 39.2669 37.1152H49.6457C49.7506 37.1152 49.8512 37.1567 49.9254 37.2305C49.9996 37.3042 50.0412 37.4043 50.0412 37.5086C50.0412 37.613 49.9996 37.713 49.9254 37.7868C49.8512 37.8606 49.7506 37.902 49.6457 37.902Z" fill="#2A2E32"/>
<path d="M49.6457 41.9635H39.2669C39.162 41.9635 39.0614 41.9221 38.9872 41.8483C38.913 41.7745 38.8713 41.6745 38.8713 41.5701C38.8713 41.4658 38.913 41.3658 38.9872 41.292C39.0614 41.2182 39.162 41.1768 39.2669 41.1768H49.6457C49.7506 41.1768 49.8512 41.2182 49.9254 41.292C49.9996 41.3658 50.0412 41.4658 50.0412 41.5701C50.0412 41.6745 49.9996 41.7745 49.9254 41.8483C49.8512 41.9221 49.7506 41.9635 49.6457 41.9635Z" fill="#2A2E32"/>
<path d="M46.9383 46.028H39.2669C39.162 46.028 39.0614 45.9865 38.9872 45.9128C38.913 45.839 38.8713 45.7389 38.8713 45.6346C38.8713 45.5303 38.913 45.4302 38.9872 45.3564C39.0614 45.2827 39.162 45.2412 39.2669 45.2412H46.9383C47.0432 45.2412 47.1438 45.2827 47.218 45.3564C47.2921 45.4302 47.3338 45.5303 47.3338 45.6346C47.3338 45.7389 47.2921 45.839 47.218 45.9128C47.1438 45.9865 47.0432 46.028 46.9383 46.028Z" fill="#2A2E32"/>
<path d="M33.3317 49.8937H19.7827L18.5466 45.5664H34.1702L33.3317 49.8937ZM20.372 49.1069H32.6791L33.2071 46.3532H19.5849L20.372 49.1069Z" fill="#2A2E32"/>
<path d="M26.6927 49.8937C26.5878 49.8937 26.4871 49.8522 26.413 49.7785C26.3388 49.7047 26.2971 49.6046 26.2971 49.5003V45.9598C26.2971 45.8555 26.3388 45.7554 26.413 45.6816C26.4871 45.6079 26.5878 45.5664 26.6927 45.5664C26.7976 45.5664 26.8982 45.6079 26.9723 45.6816C27.0465 45.7554 27.0882 45.8555 27.0882 45.9598V49.5003C27.0882 49.6046 27.0465 49.7047 26.9723 49.7785C26.8982 49.8522 26.7976 49.8937 26.6927 49.8937Z" fill="#2A2E32"/>
<path d="M32.612 50.5786C33.2062 50.5786 33.6878 50.0952 33.6878 49.4988C33.6878 48.9024 33.2062 48.4189 32.612 48.4189C32.0178 48.4189 31.5361 48.9024 31.5361 49.4988C31.5361 50.0952 32.0178 50.5786 32.612 50.5786Z" fill="#2A2E32"/>
<path d="M26.6849 50.5786C27.2845 50.5786 27.7706 50.0952 27.7706 49.4988C27.7706 48.9024 27.2845 48.4189 26.6849 48.4189C26.0852 48.4189 25.5991 48.9024 25.5991 49.4988C25.5991 50.0952 26.0852 50.5786 26.6849 50.5786Z" fill="#2A2E32"/>
<path d="M20.4845 50.5786C21.0776 50.5786 21.5584 50.0952 21.5584 49.4988C21.5584 48.9024 21.0776 48.4189 20.4845 48.4189C19.8914 48.4189 19.4106 48.9024 19.4106 49.4988C19.4106 50.0952 19.8914 50.5786 20.4845 50.5786Z" fill="#2A2E32"/>
<path d="M16.9741 38.5396C16.9129 38.5399 16.8524 38.526 16.7975 38.499C16.7426 38.472 16.6948 38.4327 16.6577 38.3843L14.4427 35.4712C14.3403 35.3355 14.278 35.1741 14.2626 35.0051C14.2471 34.8361 14.2793 34.6661 14.3554 34.5143C14.4316 34.3624 14.5487 34.2346 14.6937 34.1452C14.8387 34.0557 15.0058 34.0082 15.1764 34.0078H21.942C22.2031 34.0079 22.4605 34.0697 22.6929 34.188C22.9253 34.3063 23.1262 34.4778 23.279 34.6884L26.3364 37.865C26.4 37.9416 26.432 38.0392 26.4262 38.1383C26.4204 38.2374 26.3771 38.3307 26.305 38.3994C26.233 38.4681 26.1374 38.5071 26.0376 38.5087C25.9378 38.5103 25.8411 38.4743 25.7669 38.4079L22.6402 35.1644C22.5615 35.0504 22.4561 34.9571 22.3331 34.8927C22.2101 34.8283 22.0732 34.7946 21.9341 34.7946H15.1685C15.1446 34.7942 15.121 34.8006 15.1007 34.8132C15.0803 34.8258 15.0641 34.8439 15.0538 34.8654C15.0433 34.8863 15.0388 34.9097 15.0409 34.933C15.043 34.9562 15.0516 34.9785 15.0657 34.9972L17.2886 37.9083C17.3203 37.9494 17.3435 37.9964 17.3568 38.0465C17.3702 38.0966 17.3735 38.1488 17.3665 38.2001C17.3595 38.2515 17.3424 38.301 17.3161 38.3457C17.2899 38.3905 17.255 38.4297 17.2134 38.461C17.1444 38.5124 17.0604 38.5401 16.9741 38.5396Z" fill="#2A2E32"/>
<path d="M26.6924 46.4394H34.077L35.9202 38.2137C35.9487 38.0832 35.9473 37.948 35.9161 37.8182C35.8849 37.6883 35.8247 37.5671 35.74 37.4636C35.6553 37.3601 35.5482 37.2768 35.4267 37.2201C35.3052 37.1633 35.1724 37.1345 35.0382 37.1358H26.6924V46.4394Z" fill="#C20004"/>
<path d="M18.6946 46.4394H26.6923V37.1357H16.8158C16.669 37.1353 16.5242 37.1697 16.3934 37.236C16.2626 37.3024 16.1496 37.3987 16.0637 37.5172C15.9779 37.6357 15.9217 37.7727 15.8998 37.9171C15.8778 38.0615 15.8908 38.209 15.9377 38.3474L18.6946 46.4394Z" fill="#C20004"/>
<path d="M26.6927 45.3444C26.5878 45.3444 26.4871 45.3029 26.413 45.2292C26.3388 45.1554 26.2971 45.0553 26.2971 44.951V38.1375C26.2971 38.0332 26.3388 37.9331 26.413 37.8594C26.4871 37.7856 26.5878 37.7441 26.6927 37.7441C26.7976 37.7441 26.8982 37.7856 26.9723 37.8594C27.0465 37.9331 27.0882 38.0332 27.0882 38.1375V44.9431C27.0892 44.9955 27.0798 45.0475 27.0604 45.0961C27.041 45.1447 27.012 45.189 26.9752 45.2264C26.9383 45.2638 26.8944 45.2935 26.8459 45.3137C26.7974 45.334 26.7453 45.3444 26.6927 45.3444Z" fill="#2A2E32"/>
<path d="M23.5834 125.359H10.8828C10.2472 125.359 9.63787 125.108 9.18847 124.661C8.73907 124.214 8.48636 123.608 8.48584 122.976V110.346C8.48689 109.714 8.73982 109.109 9.18916 108.662C9.63851 108.215 10.2476 107.964 10.8828 107.964H23.5794C24.215 107.964 24.8243 108.216 25.2737 108.663C25.7231 109.11 25.9759 109.716 25.9764 110.348V122.978C25.9753 123.609 25.7229 124.214 25.2745 124.66C24.826 125.106 24.2179 125.358 23.5834 125.359ZM10.8828 108.751C10.457 108.751 10.0489 108.92 9.74784 109.219C9.44679 109.518 9.27743 109.924 9.27691 110.348V122.978C9.27743 123.401 9.44679 123.807 9.74784 124.106C10.0489 124.406 10.457 124.574 10.8828 124.575H23.5794C24.0052 124.574 24.4133 124.406 24.7144 124.106C25.0154 123.807 25.1848 123.401 25.1853 122.978V110.346C25.1848 109.922 25.0154 109.516 24.7144 109.217C24.4133 108.918 24.0052 108.749 23.5794 108.749L10.8828 108.751Z" fill="#2A2E32"/>
<path d="M14.3683 115.28C13.9738 115.28 13.5881 115.164 13.26 114.946C12.9319 114.729 12.6761 114.419 12.5249 114.057C12.3738 113.694 12.3342 113.296 12.411 112.911C12.4879 112.526 12.6778 112.173 12.9567 111.895C13.2356 111.618 13.591 111.429 13.9779 111.352C14.3648 111.276 14.7657 111.315 15.1301 111.466C15.4944 111.616 15.8058 111.87 16.0246 112.197C16.2435 112.523 16.3602 112.907 16.3598 113.299C16.3593 113.824 16.1493 114.328 15.7759 114.699C15.4025 115.07 14.8963 115.279 14.3683 115.28ZM14.3683 112.103C14.1304 112.103 13.8977 112.173 13.6997 112.304C13.5017 112.435 13.3473 112.622 13.256 112.84C13.1647 113.059 13.1406 113.299 13.1867 113.531C13.2329 113.763 13.3473 113.977 13.5154 114.144C13.6834 114.311 13.8977 114.426 14.131 114.472C14.3643 114.518 14.6062 114.495 14.826 114.404C15.0458 114.314 15.2337 114.16 15.3659 113.964C15.4982 113.767 15.5687 113.536 15.5687 113.299C15.5687 112.982 15.4423 112.678 15.2172 112.454C14.9922 112.23 14.6868 112.104 14.3683 112.103Z" fill="#2A2E32"/>
<path d="M20.1031 121.37C19.7092 121.37 19.3242 121.253 18.9967 121.036C18.6692 120.818 18.4139 120.509 18.2632 120.147C18.1124 119.785 18.073 119.387 18.1498 119.002C18.2267 118.618 18.4164 118.265 18.6949 117.988C18.9734 117.711 19.3282 117.523 19.7146 117.446C20.1009 117.37 20.5013 117.409 20.8652 117.559C21.2291 117.709 21.5401 117.963 21.759 118.288C21.9778 118.614 22.0946 118.997 22.0946 119.389C22.0941 119.914 21.8841 120.418 21.5107 120.789C21.1374 121.16 20.6311 121.369 20.1031 121.37ZM20.1031 118.195C19.8657 118.195 19.6336 118.265 19.4362 118.396C19.2387 118.527 19.0849 118.714 18.994 118.932C18.9032 119.15 18.8794 119.39 18.9257 119.622C18.972 119.853 19.0864 120.066 19.2542 120.233C19.4221 120.4 19.636 120.514 19.8689 120.56C20.1018 120.606 20.3431 120.582 20.5625 120.492C20.7818 120.402 20.9693 120.249 21.1012 120.052C21.2331 119.856 21.3035 119.625 21.3035 119.389C21.3041 119.232 21.2734 119.076 21.2133 118.931C21.1532 118.785 21.0649 118.653 20.9533 118.542C20.8418 118.431 20.7093 118.343 20.5634 118.282C20.4175 118.222 20.2611 118.191 20.1031 118.191V118.195Z" fill="#2A2E32"/>
<path d="M13.4538 122.534C13.3839 122.533 13.3157 122.513 13.256 122.477C13.1665 122.423 13.102 122.336 13.0768 122.235C13.0516 122.134 13.0677 122.028 13.1215 121.938L19.7625 110.973C19.8168 110.883 19.9046 110.819 20.0066 110.794C20.1086 110.769 20.2165 110.785 20.3064 110.839C20.3964 110.893 20.4611 110.98 20.4863 111.082C20.5115 111.183 20.4952 111.29 20.4409 111.38L13.7999 122.344C13.7641 122.403 13.7133 122.452 13.6525 122.485C13.5918 122.519 13.5232 122.536 13.4538 122.534Z" fill="#2A2E32"/>
<path d="M164.533 128.97H147.327C146.156 128.969 145.033 128.506 144.205 127.683C143.377 126.859 142.912 125.743 142.911 124.578V90.7134C142.913 89.5509 143.378 88.4366 144.204 87.6142C145.03 86.7918 146.15 86.3283 147.319 86.3252H164.525C165.696 86.3262 166.818 86.7893 167.646 87.6128C168.474 88.4362 168.94 89.5528 168.941 90.7174V124.578C168.939 125.741 168.475 126.856 167.648 127.679C166.822 128.503 165.702 128.967 164.533 128.97ZM147.319 87.112C146.358 87.113 145.436 87.4932 144.757 88.1691C144.077 88.845 143.695 89.7615 143.694 90.7174V124.578C143.695 125.534 144.077 126.451 144.757 127.127C145.436 127.802 146.358 128.183 147.319 128.184H164.525C165.486 128.183 166.407 127.802 167.087 127.127C167.766 126.451 168.149 125.534 168.15 124.578V90.7134C168.148 89.7596 167.766 88.8453 167.088 88.1705C166.41 87.4957 165.492 87.1151 164.533 87.112H147.319Z" fill="#2A2E32"/>
<path d="M161.18 111.577H150.671C149.659 111.577 148.839 112.393 148.839 113.399V119.71C148.839 120.716 149.659 121.532 150.671 121.532H161.18C162.191 121.532 163.011 120.716 163.011 119.71V113.399C163.011 112.393 162.191 111.577 161.18 111.577Z" fill="#C20004"/>
<path d="M162.642 115.54H149.239C149.134 115.54 149.034 115.498 148.959 115.424C148.885 115.351 148.844 115.251 148.844 115.146C148.844 115.042 148.885 114.942 148.959 114.868C149.034 114.794 149.134 114.753 149.239 114.753H162.642C162.747 114.753 162.847 114.794 162.921 114.868C162.996 114.942 163.037 115.042 163.037 115.146C163.037 115.251 162.996 115.351 162.921 115.424C162.847 115.498 162.747 115.54 162.642 115.54Z" fill="#2A2E32"/>
<path d="M153.371 120.304H151.652C151.287 120.29 150.942 120.137 150.689 119.875C150.436 119.614 150.295 119.265 150.295 118.902C150.295 118.54 150.436 118.191 150.689 117.93C150.942 117.668 151.287 117.515 151.652 117.501H153.371C153.735 117.515 154.08 117.668 154.333 117.93C154.586 118.191 154.728 118.54 154.728 118.902C154.728 119.265 154.586 119.614 154.333 119.875C154.08 120.137 153.735 120.29 153.371 120.304ZM151.652 118.288C151.494 118.297 151.346 118.365 151.237 118.48C151.128 118.594 151.068 118.745 151.068 118.902C151.068 119.06 151.128 119.211 151.237 119.325C151.346 119.44 151.494 119.508 151.652 119.517H153.371C153.528 119.508 153.677 119.44 153.785 119.325C153.894 119.211 153.955 119.06 153.955 118.902C153.955 118.745 153.894 118.594 153.785 118.48C153.677 118.365 153.528 118.297 153.371 118.288H151.652Z" fill="#2A2E32"/>
<path d="M161.776 93.9189H150.052C149.041 93.9189 148.221 94.7344 148.221 95.7403V102.052C148.221 103.058 149.041 103.874 150.052 103.874H161.776C162.787 103.874 163.607 103.058 163.607 102.052V95.7403C163.607 94.7344 162.787 93.9189 161.776 93.9189Z" fill="#636466"/>
<path d="M155.914 101.413C155.412 101.413 154.922 101.265 154.505 100.988C154.088 100.711 153.763 100.317 153.571 99.8567C153.379 99.396 153.329 98.8889 153.427 98.3998C153.525 97.9107 153.766 97.4613 154.121 97.1087C154.475 96.756 154.927 96.5159 155.419 96.4186C155.911 96.3213 156.421 96.3712 156.884 96.5621C157.347 96.7529 157.743 97.0761 158.022 97.4908C158.3 97.9055 158.449 98.393 158.449 98.8917C158.448 99.5603 158.181 100.201 157.706 100.674C157.23 101.147 156.586 101.413 155.914 101.413ZM155.914 97.1569C155.569 97.1569 155.231 97.2586 154.944 97.4493C154.658 97.6399 154.434 97.9108 154.302 98.2278C154.17 98.5448 154.135 98.8937 154.203 99.2302C154.27 99.5667 154.436 99.8758 154.68 100.118C154.924 100.361 155.235 100.526 155.573 100.593C155.912 100.66 156.262 100.626 156.581 100.495C156.9 100.363 157.172 100.141 157.364 99.8556C157.556 99.5703 157.658 99.2349 157.658 98.8917C157.657 98.4318 157.473 97.9908 157.146 97.6656C156.819 97.3404 156.376 97.1574 155.914 97.1569Z" fill="#2A2E32"/>
<path d="M149.67 101.414H148.221V100.627H149.67C150.057 100.584 150.414 100.401 150.673 100.112C150.933 99.8237 151.076 99.4503 151.076 99.0634C151.076 98.6765 150.933 98.3031 150.673 98.0147C150.414 97.7262 150.057 97.5429 149.67 97.4997H148.221V96.7129H149.67C150.26 96.7666 150.808 97.0374 151.207 97.4723C151.606 97.9072 151.827 98.4747 151.827 99.0634C151.827 99.6521 151.606 100.22 151.207 100.654C150.808 101.089 150.26 101.36 149.67 101.414Z" fill="#2A2E32"/>
<path d="M163.631 101.425H162.175C161.584 101.374 161.033 101.104 160.631 100.668C160.23 100.233 160.007 99.6638 160.007 99.0732C160.007 98.4825 160.23 97.9133 160.631 97.478C161.033 97.0427 161.584 96.7728 162.175 96.7217H163.625V97.5085H162.175C161.787 97.5496 161.427 97.7322 161.166 98.0211C160.905 98.3099 160.761 98.6847 160.761 99.0732C160.761 99.4616 160.905 99.8364 161.166 100.125C161.427 100.414 161.787 100.597 162.175 100.638H163.625L163.631 101.425Z" fill="#2A2E32"/>
<path d="M166.281 61.3079H117.81C116.294 61.3037 114.842 60.7034 113.771 59.6379C112.699 58.5724 112.095 57.1285 112.09 55.6214V26.0819C112.095 24.5746 112.698 23.1301 113.77 22.0642C114.842 20.9984 116.294 20.3977 117.81 20.3936H166.281C167.796 20.3977 169.248 20.9984 170.32 22.0642C171.392 23.1301 171.996 24.5746 172 26.0819V55.6214C171.995 57.1285 171.391 58.5724 170.319 59.6379C169.248 60.7034 167.796 61.3037 166.281 61.3079ZM117.81 21.1823C116.504 21.1864 115.253 21.7042 114.329 22.6225C113.406 23.5409 112.886 24.7852 112.881 26.0839V55.6214C112.883 56.9208 113.403 58.1664 114.327 59.085C115.251 60.0036 116.503 60.5201 117.81 60.5211H166.281C167.587 60.5201 168.84 60.0036 169.764 59.085C170.688 58.1664 171.207 56.9208 171.209 55.6214V26.0819C171.205 24.7832 170.684 23.5389 169.761 22.6206C168.837 21.7022 167.586 21.1845 166.281 21.1803L117.81 21.1823Z" fill="#2A2E32"/>
<path d="M137.315 28.3125H122.099C120.532 28.3125 119.261 29.5762 119.261 31.1351V48.9044C119.261 50.4633 120.532 51.727 122.099 51.727H137.315C138.883 51.727 140.153 50.4633 140.153 48.9044V31.1351C140.153 29.5762 138.883 28.3125 137.315 28.3125Z" fill="#C20004"/>
<path d="M130.103 40.8535H129.312V51.7268H130.103V40.8535Z" fill="#2A2E32"/>
<path d="M149.324 28.8027H145.641C145.09 28.8027 144.643 29.2475 144.643 29.796V33.4585C144.643 34.0071 145.09 34.4518 145.641 34.4518H149.324C149.875 34.4518 150.322 34.0071 150.322 33.4585V29.796C150.322 29.2475 149.875 28.8027 149.324 28.8027Z" fill="#636466"/>
<path d="M157.29 28.8027H153.608C153.056 28.8027 152.609 29.2475 152.609 29.796V33.4585C152.609 34.0071 153.056 34.4518 153.608 34.4518H157.29C157.842 34.4518 158.289 34.0071 158.289 33.4585V29.796C158.289 29.2475 157.842 28.8027 157.29 28.8027Z" fill="#636466"/>
<path d="M165.258 28.8027H161.576C161.024 28.8027 160.577 29.2475 160.577 29.796V33.4585C160.577 34.0071 161.024 34.4518 161.576 34.4518H165.258C165.81 34.4518 166.257 34.0071 166.257 33.4585V29.796C166.257 29.2475 165.81 28.8027 165.258 28.8027Z" fill="#636466"/>
<path d="M166.259 39.9879H145.037C144.932 39.9879 144.831 39.9465 144.757 39.8727C144.683 39.799 144.641 39.6989 144.641 39.5946C144.641 39.4902 144.683 39.3902 144.757 39.3164C144.831 39.2426 144.932 39.2012 145.037 39.2012H166.259C166.364 39.2012 166.465 39.2426 166.539 39.3164C166.613 39.3902 166.655 39.4902 166.655 39.5946C166.655 39.6989 166.613 39.799 166.539 39.8727C166.465 39.9465 166.364 39.9879 166.259 39.9879Z" fill="#2A2E32"/>
<path d="M166.259 44.153H145.037C144.932 44.153 144.831 44.1115 144.757 44.0378C144.683 43.964 144.641 43.8639 144.641 43.7596C144.641 43.6553 144.683 43.5552 144.757 43.4814C144.831 43.4077 144.932 43.3662 145.037 43.3662H166.259C166.364 43.3662 166.465 43.4077 166.539 43.4814C166.613 43.5552 166.655 43.6553 166.655 43.7596C166.655 43.8639 166.613 43.964 166.539 44.0378C166.465 44.1115 166.364 44.153 166.259 44.153Z" fill="#2A2E32"/>
<path d="M158.872 48.318H145.028C144.923 48.318 144.823 48.2766 144.749 48.2028C144.674 48.129 144.633 48.029 144.633 47.9246C144.633 47.8203 144.674 47.7202 144.749 47.6465C144.823 47.5727 144.923 47.5312 145.028 47.5312H158.872C158.977 47.5312 159.078 47.5727 159.152 47.6465C159.226 47.7202 159.268 47.8203 159.268 47.9246C159.268 48.029 159.226 48.129 159.152 48.2028C159.078 48.2766 158.977 48.318 158.872 48.318Z" fill="#2A2E32"/>
<path d="M133.647 40.8533H125.72C125.637 40.8533 125.555 40.837 125.478 40.8053C125.402 40.7737 125.332 40.7273 125.273 40.6688C125.215 40.6103 125.168 40.5409 125.137 40.4646C125.105 40.3882 125.089 40.3064 125.089 40.2239V36.2369C125.089 36.1425 125.127 36.0519 125.194 35.9851C125.261 35.9184 125.352 35.8809 125.447 35.8809H133.918C133.965 35.8806 134.012 35.8896 134.055 35.9074C134.099 35.9252 134.139 35.9514 134.172 35.9844C134.206 36.0175 134.232 36.0569 134.25 36.1002C134.268 36.1435 134.278 36.19 134.278 36.2369V40.2239C134.278 40.3064 134.262 40.3882 134.23 40.4646C134.199 40.5409 134.152 40.6103 134.094 40.6688C134.035 40.7273 133.965 40.7737 133.889 40.8053C133.812 40.837 133.73 40.8533 133.647 40.8533Z" fill="#C20004"/>
<path d="M129.683 37.3091C132.221 37.3091 134.278 36.6698 134.278 35.8811C134.278 35.0925 132.221 34.4531 129.683 34.4531C127.146 34.4531 125.089 35.0925 125.089 35.8811C125.089 36.6698 127.146 37.3091 129.683 37.3091Z" fill="#2A2E32"/>
<path d="M98.2152 116.945H57.8706C57.7657 116.945 57.6651 116.904 57.5909 116.83C57.5168 116.756 57.4751 116.656 57.4751 116.552C57.4751 116.447 57.5168 116.347 57.5909 116.273C57.6651 116.2 57.7657 116.158 57.8706 116.158H98.2152C98.3201 116.158 98.4207 116.2 98.4948 116.273C98.569 116.347 98.6107 116.447 98.6107 116.552C98.6107 116.656 98.569 116.756 98.4948 116.83C98.4207 116.904 98.3201 116.945 98.2152 116.945Z" fill="white"/>
</svg>
