<svg width="76" height="32" viewBox="0 0 76 32" fill="none" xmlns="http://www.w3.org/2000/svg">
<path d="M25.8079 32L69.5174 30.2631L76 1L31.6305 1.34604L25 31.9826" fill="#2A2E32"/>
<path d="M50.5 20C51.8807 20 53 18.8807 53 17.5C53 16.1193 51.8807 15 50.5 15C49.1193 15 48 16.1193 48 17.5C48 18.8807 49.1193 20 50.5 20Z" fill="white"/>
<path d="M24.6911 30.0222L0.633279 30C0.562979 29.9996 0.494647 30.0204 0.439626 30.0588C0.384605 30.0972 0.34621 30.151 0.330803 30.2112L0.00721083 31.4799C-0.00268666 31.5193 -0.00239042 31.5601 0.00806953 31.5993C0.0185295 31.6386 0.0388942 31.6753 0.0676546 31.7067C0.0964151 31.7381 0.13284 31.7634 0.174245 31.7809C0.21565 31.7983 0.260972 31.8073 0.306879 31.8073L24.2747 32C24.3439 32.0007 24.4113 31.9811 24.4662 31.9441C24.521 31.9071 24.5601 31.855 24.5772 31.7961L24.9908 30.357C25.0022 30.3171 25.003 30.2755 24.9932 30.2353C24.9835 30.1951 24.9634 30.1574 24.9344 30.1251C24.9055 30.0928 24.8685 30.0667 24.8264 30.0489C24.7842 30.0311 24.7379 30.0219 24.6911 30.0222Z" fill="#2A2E32"/>
<path d="M30.8671 0.298808L75.267 5.48836e-06C75.2986 -0.000219512 75.3298 0.00647631 75.3583 0.0195878C75.3869 0.0326994 75.412 0.0518868 75.4317 0.075719L76 0.758498L31.7746 1.10462C31.726 1.10511 31.6791 1.12197 31.6419 1.15231C31.6047 1.18266 31.5795 1.22459 31.5708 1.27092L25.8086 31.8336C25.7996 31.8813 25.7732 31.9243 25.7343 31.9549C25.6953 31.9854 25.6464 32.0013 25.5963 31.9999L25.204 31.9891C25.174 31.9883 25.1445 31.9814 25.1176 31.9686C25.0906 31.9559 25.0668 31.9377 25.0477 31.9152C25.0287 31.8928 25.0148 31.8666 25.0071 31.8386C24.9993 31.8105 24.9979 31.7811 25.0029 31.7525L30.5027 0.601662C30.5157 0.517224 30.5598 0.440162 30.6267 0.384556C30.6936 0.328949 30.7789 0.298513 30.8671 0.298808Z" fill="#636466"/>
</svg>
