<svg width="71" height="47" viewBox="0 0 71 47" fill="none" xmlns="http://www.w3.org/2000/svg">
<path d="M0 19.7218L6.50828 19.2835C6.50828 19.2835 7.80993 11.3948 13.0166 8.76525V0C13.0166 0 19.0909 3.5061 20.3926 3.94436C21.6943 4.38262 33.4092 -1.31479 46.8596 7.0122C58.1883 14.0244 55.6675 26.3264 54.5871 30.0297C54.3926 30.7004 54.0875 31.333 53.6846 31.9011C52.7474 33.2159 50.8513 35.8455 49.8968 36.814C48.5951 38.1288 50.7255 45.4478 49.029 46.0175C47.7274 46.4558 45.1241 40.7584 43.8224 41.1967C36.8164 43.5833 29.2678 43.8212 22.1281 41.8803C21.8925 41.814 21.6412 41.8328 21.4178 41.9336C21.1944 42.0345 21.0129 42.2109 20.9046 42.4326C20.3232 43.6334 19.1691 45.8335 18.2362 46.4602C16.9346 47.3367 16.9346 41.6393 15.6329 40.7628C14.3312 39.8863 0.0130293 27.1767 0.0130293 27.1767L0 19.7218Z" fill="#2A2E32"/>
<path d="M54.4612 21.0716C54.4612 21.0716 59.7893 17.2544 62.6399 20.0899C65.4905 22.9255 65.0436 25.8837 62.7527 26.5893C61.0432 27.1152 58.3791 24.2227 59.5289 22.3645C60.6787 20.5063 62.6877 19.5114 64.9959 21.0716C67.3042 22.6318 68.3412 25.761 68.467 27.5097" stroke="#2A2E32" stroke-width="3.9414" stroke-miterlimit="10" stroke-linecap="round"/>
<path d="M13.8801 22.7543C15.2148 22.7543 16.2969 21.6614 16.2969 20.3132C16.2969 18.965 15.2148 17.8721 13.8801 17.8721C12.5454 17.8721 11.4634 18.965 11.4634 20.3132C11.4634 21.6614 12.5454 22.7543 13.8801 22.7543Z" fill="#F2F2F2"/>
<path d="M23.7551 5.44705C23.7551 5.44705 33.4568 2.81749 39.7525 5.71001" stroke="#F2F2F2" stroke-width="0.985349" stroke-linecap="round" stroke-linejoin="round"/>
</svg>
